<?xml version="1.0" encoding="UTF-8" standalone="no"?>
<!-- Generator: Adobe Illustrator 21.1.0, SVG Export Plug-In . SVG Version: 6.00 Build 0)  -->

<svg
   xmlns:dc="http://purl.org/dc/elements/1.1/"
   xmlns:cc="http://creativecommons.org/ns#"
   xmlns:rdf="http://www.w3.org/1999/02/22-rdf-syntax-ns#"
   xmlns:svg="http://www.w3.org/2000/svg"
   xmlns="http://www.w3.org/2000/svg"
   xmlns:sodipodi="http://sodipodi.sourceforge.net/DTD/sodipodi-0.dtd"
   xmlns:inkscape="http://www.inkscape.org/namespaces/inkscape"
   version="1.1"
   id="Capa_1"
   x="0px"
   y="0px"
   viewBox="0 0 256 256"
   xml:space="preserve"
   sodipodi:docname="logo_notext256x256.svg"
   width="256"
   height="256"
   inkscape:version="0.92.1 r15371"
   inkscape:export-filename="C:\Programming-Proyects\Sodlab\printer\resources\images\logo_notext256x256.png"
   inkscape:export-xdpi="99"
   inkscape:export-ydpi="99"><metadata
     id="metadata85"><rdf:RDF><cc:Work
         rdf:about=""><dc:format>image/svg+xml</dc:format><dc:type
           rdf:resource="http://purl.org/dc/dcmitype/StillImage" /><dc:title></dc:title></cc:Work></rdf:RDF></metadata><defs
     id="defs83" /><sodipodi:namedview
     pagecolor="#ffffff"
     bordercolor="#666666"
     borderopacity="1"
     objecttolerance="10"
     gridtolerance="10"
     guidetolerance="10"
     inkscape:pageopacity="0"
     inkscape:pageshadow="2"
     inkscape:window-width="1920"
     inkscape:window-height="1017"
     id="namedview81"
     showgrid="false"
     fit-margin-top="0"
     fit-margin-left="0"
     fit-margin-right="0"
     fit-margin-bottom="0"
     inkscape:zoom="1.5733333"
     inkscape:cx="128.70392"
     inkscape:cy="113.38776"
     inkscape:window-x="-8"
     inkscape:window-y="-8"
     inkscape:window-maximized="1"
     inkscape:current-layer="g78" /><style
     type="text/css"
     id="style2">
	.st0{fill:#009EE2;}
	.st1{fill:#6F6F6E;}
	.st2{fill:#ECECEC;}
</style><g
     id="g78"
     transform="translate(-64.100002,47.900003)"><g
       id="g8"
       transform="matrix(1.4927114,0,0,1.4927114,-31.582799,-102.53324)"
       style="stroke-width:0.66992188"><g
         id="g6"
         style="stroke-width:0.66992188"><path
           class="st0"
           d="m 235.5,203.2 c 0,2.7 -2.2,4.9 -4.9,4.9 H 69 c -2.7,0 -4.9,-2.2 -4.9,-4.9 V 41.5 c 0,-2.7 2.2,-4.9 4.9,-4.9 h 161.7 c 2.7,0 4.9,2.2 4.9,4.9 v 161.7 z"
           id="path4"
           inkscape:connector-curvature="0"
           style="fill:#009ee2;stroke-width:0.66992188" /></g></g><g
       id="g46" /><g
       id="g76"
       transform="matrix(1.4011631,0,0,1.4011631,-15.916234,-91.399111)"
       style="stroke-width:0.71369278"><path
         class="st2"
         d="m 176.9,66.2 c -5.2,-5.4 -14.4,-11.8 -28.4,-11.6 -14,-0.2 -23.1,6.1 -28.4,11.6 -7.1,7.3 -11.2,17.3 -10.6,26.1 0.7,11.9 6.5,20.8 10.7,27.4 1.3,2 2.4,3.7 3.2,5.2 1.5,2.9 2.4,8.5 3.1,13.8 1.2,8.4 2.1,13.6 5,14.7 1.5,0.6 6.1,2.4 11.3,4.4 7.2,2.8 17.1,6.7 19.7,7.8 v 1.5 l -30.6,-9.3 -0.1,6.6 26.9,10.8 v 0.9 l -23.2,-6 v 6.3 l 19.9,8.1 v 1 l -16.1,-3.9 v 8.6 H 142 V 185 l 16.1,3.9 v -6.2 l -19.9,-8.1 v -0.9 l 23.2,6 v -6.3 l -26.9,-10.8 v -1.2 l 30.6,9.3 v -6.9 l -0.9,-0.3 c -0.6,-0.2 -11.1,-4.4 -19.3,-7.6 -5.7,-2.2 -11,-4.3 -12.6,-4.9 -1.5,-0.5 -2.5,-7.7 -3.2,-12.5 -0.8,-5.6 -1.7,-11.4 -3.4,-14.7 -0.9,-1.6 -2,-3.5 -3.3,-5.4 -4.1,-6.3 -9.6,-14.9 -10.3,-26.1 -0.5,-7.9 3.4,-17.3 9.9,-24 4.8,-4.9 13.1,-10.7 25.7,-10.7 v 0 c 0.1,0 0.2,0 0.3,0 0.1,0 0.3,0 0.4,0 0.1,0 0.3,0 0.4,0 0.1,0 0.2,0 0.3,0 v 0 c 12.6,0 20.9,5.8 25.7,10.7 6.5,6.7 10.4,16.1 9.9,24 -0.7,11.2 -6.2,19.8 -10.3,26.1 -1.2,1.9 -2.4,3.8 -3.3,5.4 -1.8,3.3 -2.6,9.1 -3.4,14.7 -0.7,4.8 -1.5,11 -3.3,11.6 -1.5,0.5 -10.6,-2.1 -14.7,-3.4 v -39.1 0 -28.7 c 1.5,-0.5 2.6,-2 2.6,-3.7 0,-2.1 -1.7,-3.9 -3.9,-3.9 -2.2,0 -3.9,1.7 -3.9,3.9 0,1.6 1,3.1 2.5,3.6 v 28.5 0 41.1 0 0 c 0,0 15.7,5 18.2,4.1 2.6,-1 4.1,-5.2 5.2,-13.8 0.7,-5.4 1.6,-10.9 3.1,-13.8 0.8,-1.5 1.9,-3.2 3.2,-5.2 4.2,-6.5 10,-15.5 10.7,-27.4 0.7,-8.8 -3.4,-18.8 -10.5,-26.1 z m -28.4,7.9 c 0.6,0 1.1,0.5 1.1,1.1 0,0.6 -0.5,1.1 -1.1,1.1 -0.6,0 -1.1,-0.5 -1.1,-1.1 0.1,-0.6 0.6,-1.1 1.1,-1.1 z"
         id="path62"
         inkscape:connector-curvature="0"
         style="fill:#ececec;stroke-width:0.71369278" /><path
         class="st2"
         d="m 152.7,98 h 2.8 v -8.1 l 4.3,-4.3 c 0.5,0.2 1,0.3 1.6,0.3 2.1,0 3.9,-1.7 3.9,-3.9 0,-2.1 -1.7,-3.9 -3.9,-3.9 -2.2,0 -3.9,1.7 -3.9,3.9 0,0.6 0.1,1.1 0.3,1.6 l -5.1,5.1 z m 8.7,-17.1 c 0.6,0 1.1,0.5 1.1,1.1 0,0.6 -0.5,1.1 -1.1,1.1 -0.6,0 -1.1,-0.5 -1.1,-1.1 0,-0.6 0.5,-1.1 1.1,-1.1 z"
         id="path64"
         inkscape:connector-curvature="0"
         style="fill:#ececec;stroke-width:0.71369278" /><path
         class="st2"
         d="m 144.2,88.7 -5.1,-5.1 c 0.2,-0.5 0.3,-1 0.3,-1.6 0,-2.1 -1.7,-3.9 -3.9,-3.9 -2.1,0 -3.9,1.7 -3.9,3.9 0,2.1 1.7,3.9 3.9,3.9 0.6,0 1.1,-0.1 1.6,-0.3 l 4.3,4.3 V 98 h 2.8 z M 134.5,82 c 0,-0.6 0.5,-1.1 1.1,-1.1 0.6,0 1.1,0.5 1.1,1.1 0,0.6 -0.5,1.1 -1.1,1.1 -0.6,0 -1.1,-0.5 -1.1,-1.1 z"
         id="path66"
         inkscape:connector-curvature="0"
         style="fill:#ececec;stroke-width:0.71369278" /><path
         class="st2"
         d="m 144.2,128.6 v -23.9 l -6.6,-6.6 c 0.3,-0.5 0.4,-1.1 0.4,-1.8 0,-2.1 -1.7,-3.9 -3.9,-3.9 -2.1,0 -3.9,1.7 -3.9,3.9 0,2.1 1.7,3.9 3.9,3.9 0.5,0 0.9,-0.1 1.4,-0.2 l 5.9,5.9 v 22.7 z M 133.1,96.4 c 0,-0.6 0.5,-1.1 1.1,-1.1 0.6,0 1.1,0.5 1.1,1.1 0,0.6 -0.5,1.1 -1.1,1.1 -0.6,-0.1 -1.1,-0.5 -1.1,-1.1 z"
         id="path68"
         inkscape:connector-curvature="0"
         style="fill:#ececec;stroke-width:0.71369278" /><path
         class="st2"
         d="m 162.8,92.5 c -2.1,0 -3.9,1.7 -3.9,3.9 0,0.6 0.1,1.2 0.4,1.7 l -6.6,6.6 v 23.9 h 2.8 v -22.7 l 5.9,-5.9 c 0.4,0.2 0.9,0.3 1.4,0.3 2.1,0 3.9,-1.7 3.9,-3.9 0,-2.2 -1.7,-3.9 -3.9,-3.9 z m 0,4.9 c -0.6,0 -1.1,-0.5 -1.1,-1.1 0,-0.6 0.5,-1.1 1.1,-1.1 0.6,0 1.1,0.5 1.1,1.1 0,0.7 -0.5,1.1 -1.1,1.1 z"
         id="path70"
         inkscape:connector-curvature="0"
         style="fill:#ececec;stroke-width:0.71369278" /><polygon
         class="st2"
         points="158.5,112 158.5,121.3 161.3,121.3 161.3,113.2 165.7,108.8 165.7,102.4 162.9,102.4 162.9,107.6 "
         id="polygon72"
         style="fill:#ececec;stroke-width:0.71369278" /><polygon
         class="st2"
         points="138.4,112 134,107.6 134,102.4 131.2,102.4 131.2,108.8 135.6,113.2 135.6,121.3 138.4,121.3 "
         id="polygon74"
         style="fill:#ececec;stroke-width:0.71369278" /></g></g></svg>