<?xml version="1.0" encoding="utf-8"?>
<!-- Generator: Adobe Illustrator 21.1.0, SVG Export Plug-In . SVG Version: 6.00 Build 0)  -->
<svg version="1.1" id="Capa_1" xmlns="http://www.w3.org/2000/svg" xmlns:xlink="http://www.w3.org/1999/xlink" x="0px" y="0px"
	 viewBox="0 0 300 300" style="enable-background:new 0 0 300 300;" xml:space="preserve">
<style type="text/css">
	.st0{fill:#009EE2;}
	.st1{fill:#6F6F6E;}
	.st2{fill:#ECECEC;}
</style>
<g>
	<g>
		<g>
			<path class="st0" d="M235.5,203.2c0,2.7-2.2,4.9-4.9,4.9H69c-2.7,0-4.9-2.2-4.9-4.9V41.5c0-2.7,2.2-4.9,4.9-4.9h161.7
				c2.7,0,4.9,2.2,4.9,4.9V203.2z"/>
		</g>
	</g>
	<g>
		<g>
			<path class="st1" d="M64.5,255c0,0.3,0.1,0.6,0.2,0.9c0.1,0.2,0.3,0.4,0.5,0.4l2.6,0.6c1,0.2,1.5,0.9,1.5,2c0,0.5-0.1,1-0.4,1.4
				c-0.3,0.4-0.8,0.6-1.5,0.6h-0.9c-0.4,0-0.8,0-1-0.1c-0.3,0-0.5-0.1-0.8-0.3c-0.2-0.1-0.4-0.4-0.5-0.6c-0.1-0.3-0.2-0.7-0.2-1.1
				c0-0.2,0.1-0.3,0.3-0.3c0.2,0,0.2,0.1,0.2,0.3c0,0.7,0.1,1.1,0.4,1.3c0.3,0.2,0.8,0.3,1.6,0.3h1.1c0.4,0,0.7-0.2,0.9-0.5
				c0.2-0.3,0.3-0.6,0.3-1c0-0.4-0.1-0.7-0.2-1c-0.2-0.3-0.3-0.4-0.5-0.5l-2.6-0.6c-0.5-0.1-0.9-0.3-1.2-0.6
				c-0.2-0.3-0.3-0.7-0.3-1.2c0-0.5,0.2-1,0.5-1.4c0.3-0.4,0.8-0.6,1.5-0.6h0.9c0.4,0,0.8,0,1,0.1c0.3,0,0.5,0.1,0.8,0.3
				c0.2,0.1,0.4,0.4,0.5,0.6c0.1,0.3,0.2,0.6,0.2,1.1c0,0.2-0.1,0.3-0.3,0.3c-0.2,0-0.3-0.1-0.3-0.3c0-0.4,0-0.6-0.1-0.9
				c-0.1-0.2-0.2-0.4-0.4-0.5c-0.2-0.1-0.4-0.2-0.6-0.2c-0.2,0-0.5,0-0.9,0h-1.1c-0.4,0-0.7,0.1-0.9,0.4
				C64.6,254.3,64.5,254.7,64.5,255z"/>
			<path class="st1" d="M78.2,260.2c-0.5,0.5-1.1,0.8-1.9,0.8c-0.8,0-1.4-0.3-1.9-0.8c-0.5-0.5-0.8-1.2-0.8-2.1v-2.2
				c0-0.9,0.3-1.6,0.8-2.1c0.5-0.5,1.1-0.8,1.9-0.8c0.8,0,1.4,0.3,1.9,0.8c0.5,0.5,0.8,1.2,0.8,2.1v2.2
				C78.9,259,78.7,259.7,78.2,260.2z M77.8,254.2c-0.4-0.4-0.9-0.6-1.6-0.6c-0.7,0-1.2,0.2-1.6,0.6c-0.4,0.4-0.6,1-0.6,1.7v2.2
				c0,0.7,0.2,1.3,0.6,1.7c0.4,0.4,0.9,0.6,1.6,0.6c0.7,0,1.2-0.2,1.6-0.6c0.4-0.4,0.6-1,0.6-1.7v-2.2
				C78.4,255.2,78.2,254.6,77.8,254.2z"/>
			<path class="st1" d="M83.7,260.8c-0.2,0-0.2-0.1-0.2-0.4v-7c0-0.2,0.1-0.3,0.3-0.3c0.2,0,0.3,0.1,0.3,0.3v6.9h3.8
				c0.2,0,0.3,0.1,0.3,0.3c0,0.2-0.1,0.2-0.3,0.2H83.7z"/>
			<path class="st1" d="M97.6,253.4c0-0.2,0.1-0.3,0.3-0.3c0.2,0,0.2,0.1,0.2,0.3v4.7c0,0.9-0.3,1.6-0.8,2.1
				c-0.5,0.5-1.1,0.8-1.9,0.8c-0.8,0-1.4-0.3-1.9-0.8c-0.5-0.5-0.7-1.2-0.7-2.1v-4.7c0-0.2,0.1-0.3,0.3-0.3c0.2,0,0.3,0.1,0.3,0.3
				v4.7c0,0.7,0.2,1.3,0.6,1.7c0.4,0.4,0.9,0.6,1.6,0.6c0.7,0,1.2-0.2,1.6-0.6c0.4-0.4,0.6-1,0.6-1.7V253.4z"/>
			<path class="st1" d="M106.9,253.2c0.2,0,0.3,0.1,0.3,0.3c0,0.2-0.1,0.2-0.3,0.2H105v6.9c0,0.2-0.1,0.3-0.3,0.3
				c-0.2,0-0.2-0.1-0.2-0.3v-6.9h-1.9c-0.2,0-0.3-0.1-0.3-0.3c0-0.2,0.1-0.3,0.3-0.3H106.9z"/>
			<path class="st1" d="M112,260.6c0,0.2-0.1,0.3-0.3,0.3c-0.2,0-0.2-0.1-0.2-0.3v-7.1c0-0.2,0.1-0.3,0.3-0.3c0.2,0,0.3,0.1,0.3,0.3
				V260.6z"/>
			<path class="st1" d="M121.1,260.2c-0.5,0.5-1.1,0.8-1.9,0.8s-1.4-0.3-1.9-0.8c-0.5-0.5-0.8-1.2-0.8-2.1v-2.2
				c0-0.9,0.3-1.6,0.8-2.1c0.5-0.5,1.1-0.8,1.9-0.8s1.4,0.3,1.9,0.8c0.5,0.5,0.8,1.2,0.8,2.1v2.2C121.9,259,121.6,259.7,121.1,260.2
				z M120.8,254.2c-0.4-0.4-0.9-0.6-1.6-0.6c-0.7,0-1.2,0.2-1.6,0.6c-0.4,0.4-0.6,1-0.6,1.7v2.2c0,0.7,0.2,1.3,0.6,1.7
				c0.4,0.4,0.9,0.6,1.6,0.6c0.7,0,1.2-0.2,1.6-0.6c0.4-0.4,0.6-1,0.6-1.7v-2.2C121.4,255.2,121.2,254.6,120.8,254.2z"/>
			<path class="st1" d="M131.6,260.9c-0.1,0-0.2,0-0.2-0.1l-4.4-6.7v6.4c0,0.2-0.1,0.4-0.3,0.4c-0.2,0-0.3-0.1-0.3-0.4v-7.1
				c0-0.2,0.1-0.4,0.2-0.4c0.1,0,0.2,0.1,0.3,0.2l4.3,6.5v-6.3c0-0.2,0.1-0.4,0.2-0.4c0.2,0,0.3,0.1,0.3,0.4v7.1
				C131.8,260.8,131.7,260.9,131.6,260.9z"/>
			<path class="st1" d="M136.9,255c0,0.3,0.1,0.6,0.2,0.9c0.1,0.2,0.3,0.4,0.5,0.4l2.6,0.6c1,0.2,1.5,0.9,1.5,2c0,0.5-0.2,1-0.4,1.4
				c-0.3,0.4-0.8,0.6-1.5,0.6h-0.9c-0.4,0-0.8,0-1-0.1c-0.3,0-0.5-0.1-0.8-0.3c-0.2-0.1-0.4-0.4-0.5-0.6c-0.1-0.3-0.2-0.7-0.2-1.1
				c0-0.2,0.1-0.3,0.3-0.3c0.2,0,0.2,0.1,0.2,0.3c0,0.7,0.1,1.1,0.4,1.3c0.3,0.2,0.8,0.3,1.6,0.3h1.1c0.4,0,0.7-0.2,0.9-0.5
				c0.2-0.3,0.3-0.6,0.3-1c0-0.4-0.1-0.7-0.2-1c-0.2-0.3-0.3-0.4-0.5-0.5l-2.6-0.6c-0.5-0.1-0.9-0.3-1.2-0.6
				c-0.2-0.3-0.3-0.7-0.3-1.2c0-0.5,0.2-1,0.5-1.4c0.3-0.4,0.8-0.6,1.5-0.6h0.9c0.4,0,0.8,0,1,0.1c0.3,0,0.5,0.1,0.8,0.3
				c0.2,0.1,0.4,0.4,0.5,0.6c0.1,0.3,0.2,0.6,0.2,1.1c0,0.2-0.1,0.3-0.3,0.3c-0.2,0-0.3-0.1-0.3-0.3c0-0.4,0-0.6-0.1-0.9
				c-0.1-0.2-0.2-0.4-0.4-0.5c-0.2-0.1-0.4-0.2-0.6-0.2c-0.2,0-0.5,0-0.9,0h-1.1c-0.4,0-0.7,0.1-0.9,0.4
				C137,254.3,136.9,254.7,136.9,255z"/>
			<path class="st1" d="M158,260.2c-0.5,0.5-1.1,0.8-1.9,0.8c-0.8,0-1.4-0.3-1.9-0.8c-0.5-0.5-0.7-1.2-0.7-2.1v-2.2
				c0-0.9,0.2-1.6,0.7-2.1c0.5-0.5,1.1-0.8,1.9-0.8c0.8,0,1.4,0.3,1.9,0.8c0.5,0.5,0.8,1.2,0.8,2.1v2.2
				C158.8,259,158.5,259.7,158,260.2z M157.7,254.2c-0.4-0.4-0.9-0.6-1.6-0.6c-0.7,0-1.2,0.2-1.6,0.6c-0.4,0.4-0.6,1-0.6,1.7v2.2
				c0,0.7,0.2,1.3,0.6,1.7c0.4,0.4,0.9,0.6,1.6,0.6c0.7,0,1.2-0.2,1.6-0.6c0.4-0.4,0.6-1,0.6-1.7v-2.2
				C158.3,255.2,158.1,254.6,157.7,254.2z"/>
			<path class="st1" d="M168.5,260.9c-0.1,0-0.2,0-0.2-0.1l-4.4-6.7v6.4c0,0.2-0.1,0.4-0.3,0.4c-0.2,0-0.3-0.1-0.3-0.4v-7.1
				c0-0.2,0.1-0.4,0.2-0.4c0.1,0,0.2,0.1,0.3,0.2l4.3,6.5v-6.3c0-0.2,0.1-0.4,0.2-0.4c0.2,0,0.3,0.1,0.3,0.4v7.1
				C168.7,260.8,168.6,260.9,168.5,260.9z"/>
			<path class="st1" d="M186.1,255.3v3.4c0,0.8-0.2,1.4-0.6,1.7c-0.4,0.3-1,0.4-1.9,0.4H181c-0.2,0-0.2-0.1-0.2-0.4v-6.9
				c0-0.2,0.1-0.4,0.2-0.4h2.6c0.8,0,1.5,0.1,1.9,0.4C185.9,253.9,186.1,254.4,186.1,255.3z M185.6,258.7v-3.4c0-0.4,0-0.6-0.1-0.9
				c-0.1-0.2-0.2-0.4-0.4-0.5c-0.2-0.1-0.4-0.2-0.6-0.2c-0.2,0-0.5,0-0.9,0h-2.3v6.6h2.3c0.4,0,0.7,0,0.9,0c0.2,0,0.4-0.1,0.6-0.2
				c0.2-0.1,0.3-0.3,0.4-0.5C185.6,259.4,185.6,259.1,185.6,258.7z"/>
			<path class="st1" d="M191.2,256.8v3.5h4.5c0.2,0,0.3,0.1,0.3,0.3c0,0.2-0.1,0.2-0.3,0.2h-4.8c-0.1,0-0.2-0.1-0.2-0.4v-6.9
				c0-0.2,0.1-0.4,0.2-0.4h4.8c0.2,0,0.3,0.1,0.3,0.3c0,0.2-0.1,0.2-0.3,0.2h-4.5v2.6h3.1c0.2,0,0.4,0.1,0.4,0.3
				c0,0.2-0.1,0.2-0.4,0.2H191.2z"/>
			<path class="st1" d="M203.4,257.5c-0.1,0-0.1,0-0.1-0.1l-2.1-3.3v6.4c0,0.2-0.1,0.4-0.3,0.4c-0.2,0-0.3-0.1-0.3-0.4v-7.1
				c0-0.2,0.1-0.4,0.2-0.4c0.1,0,0.2,0.1,0.3,0.2l2.2,3.4l2.3-3.4c0.1-0.1,0.2-0.2,0.3-0.2c0.2,0,0.2,0.1,0.2,0.4v7.1
				c0,0.2-0.1,0.4-0.3,0.4c-0.2,0-0.2-0.1-0.2-0.4v-6.4l-2.1,3.3C203.5,257.4,203.5,257.5,203.4,257.5z"/>
			<path class="st1" d="M210.3,261c-0.2,0-0.3-0.1-0.3-0.2c0-0.1,0-0.1,0-0.2l2.7-7.4h0.6l2.7,7.4c0,0.1,0,0.1,0,0.2
				c0,0.2-0.1,0.2-0.3,0.2c-0.1,0-0.2-0.1-0.3-0.2l-0.9-2.4h-3.3l-0.9,2.4C210.5,260.9,210.4,261,210.3,261z M211.6,257.9h2.9
				l-1.5-3.9L211.6,257.9z"/>
			<path class="st1" d="M225.4,260.9c-0.1,0-0.2,0-0.2-0.1l-4.4-6.7v6.4c0,0.2-0.1,0.4-0.3,0.4c-0.2,0-0.3-0.1-0.3-0.4v-7.1
				c0-0.2,0.1-0.4,0.2-0.4c0.1,0,0.2,0.1,0.3,0.2l4.3,6.5v-6.3c0-0.2,0.1-0.4,0.2-0.4c0.2,0,0.3,0.1,0.3,0.4v7.1
				C225.6,260.8,225.6,260.9,225.4,260.9z"/>
			<path class="st1" d="M235.6,255.3v3.4c0,0.8-0.2,1.4-0.6,1.7c-0.4,0.3-1,0.4-1.9,0.4h-2.6c-0.2,0-0.2-0.1-0.2-0.4v-6.9
				c0-0.2,0.1-0.4,0.2-0.4h2.6c0.8,0,1.5,0.1,1.9,0.4C235.4,253.9,235.6,254.4,235.6,255.3z M235.1,258.7v-3.4c0-0.4,0-0.6-0.1-0.9
				c-0.1-0.2-0.2-0.4-0.4-0.5c-0.2-0.1-0.4-0.2-0.6-0.2c-0.2,0-0.5,0-0.9,0h-2.3v6.6h2.3c0.4,0,0.7,0,0.9,0c0.2,0,0.4-0.1,0.6-0.2
				c0.2-0.1,0.3-0.3,0.4-0.5C235,259.4,235.1,259.1,235.1,258.7z"/>
		</g>
	</g>
	<g>
		<path class="st0" d="M67.3,224.4c0,1,0.2,1.9,0.7,2.7c0.5,0.8,1,1.2,1.7,1.4l12.5,2.2c2.2,0.4,3.8,1.4,4.8,2.8
			c1,1.5,1.4,3.2,1.4,5.1c0,2.1-0.7,3.9-2,5.4c-1.3,1.5-3.5,2.2-6.6,2.2h-4.3c-4,0-6.9-0.6-8.7-1.7c-1.8-1.1-2.7-3.4-2.7-6.9
			c0-1.3,0.6-1.9,1.7-1.9c0.5,0,0.9,0.2,1.2,0.5c0.3,0.4,0.4,0.8,0.4,1.4c0,2.3,0.5,3.8,1.6,4.4c1,0.6,3.2,0.9,6.5,0.9h5.3
			c1.6,0,2.7-0.5,3.3-1.4c0.7-0.9,1-2,1-3.1c0-1.4-0.3-2.4-0.8-3.2c-0.5-0.8-1.1-1.3-1.5-1.4l-12.4-2.3c-2.3-0.5-3.9-1.3-4.8-2.4
			c-1-1.2-1.4-2.8-1.4-4.9c0-1,0.1-1.9,0.4-2.7c0.3-0.8,0.8-1.6,1.4-2.4c0.7-0.8,1.6-1.4,2.9-1.8c1.3-0.4,2.8-0.7,4.6-0.7h3.4
			c2,0,3.7,0.1,5,0.3c1.3,0.2,2.5,0.6,3.5,1.2c1.1,0.6,1.8,1.5,2.3,2.6c0.5,1.1,0.7,2.6,0.7,4.4c0,0.7-0.2,1.2-0.5,1.5
			c-0.3,0.3-0.7,0.5-1.2,0.5c-0.5,0-0.9-0.2-1.2-0.5c-0.3-0.4-0.5-0.8-0.5-1.4c0-2.3-0.5-3.8-1.5-4.4c-1-0.6-3.2-0.9-6.6-0.9H72
			c-1.8,0-3,0.5-3.7,1.4C67.6,222.3,67.3,223.3,67.3,224.4z"/>
		<path class="st0" d="M106.1,246.3c-3.4,0-6.2-1-8.3-2.9c-2.1-1.9-3.1-4.6-3.1-7.9v-8c0-3.4,1-6,3.1-7.9c2.1-1.9,4.8-2.9,8.3-2.9
			c3.4,0,6.2,1,8.3,2.9c2.1,1.9,3.1,4.6,3.1,7.9v8c0,3.3-1,6-3.1,7.9C112.2,245.3,109.5,246.3,106.1,246.3z M112.1,221.9
			c-1.4-1.3-3.4-2-6.1-2c-2.7,0-4.7,0.7-6.1,2c-1.4,1.3-2.1,3.2-2.1,5.7v7.7c0,2.5,0.7,4.4,2.1,5.7c1.4,1.3,3.4,2,6.1,2
			c2.7,0,4.7-0.7,6.1-2c1.4-1.3,2.1-3.2,2.1-5.7v-7.7C114.2,225.2,113.5,223.3,112.1,221.9z"/>
		<path class="st0" d="M148,224.9v12.6c0,3.3-0.9,5.5-2.7,6.6c-1.8,1.1-4.7,1.7-8.7,1.7h-9.9c-1,0-1.5-0.7-1.5-2v-25.3
			c0-1.3,0.5-2,1.5-2h10.7c3.7,0,6.3,0.6,8,1.7C147.1,219.5,148,221.7,148,224.9z M144.7,237.4V225c0-2.2-0.5-3.7-1.5-4.3
			c-1-0.6-2.9-0.9-5.9-0.9h-9v22.7h8.2c3.4,0,5.5-0.3,6.6-0.9C144.2,241.1,144.7,239.7,144.7,237.4z"/>
		<path class="st1" d="M157.2,245.9c-1,0-1.5-0.6-1.5-1.9v-25.4c0-0.6,0.2-1.1,0.5-1.4c0.3-0.3,0.7-0.4,1.1-0.4
			c0.4,0,0.8,0.1,1.1,0.4c0.3,0.3,0.5,0.7,0.5,1.4v24H174c1.3,0,1.9,0.6,1.9,1.7c0,1.1-0.6,1.6-1.9,1.6H157.2z"/>
		<path class="st1" d="M182.5,246.6c-0.3,0-0.7-0.1-1.1-0.4c-0.4-0.2-0.6-0.6-0.6-1.2c0-0.3,0-0.6,0.1-0.9l10.9-27.6h3.4l10.9,27.6
			c0.1,0.3,0.1,0.6,0.1,0.9c0,0.5-0.2,0.9-0.6,1.2c-0.4,0.2-0.7,0.4-1.1,0.4c-0.8,0-1.3-0.4-1.7-1.3l-3.1-8h-12.6l-3.1,8
			C183.9,246.2,183.3,246.6,182.5,246.6z M188.7,234h10l-5-12.3L188.7,234z"/>
		<path class="st1" d="M212.6,243.9v-25.3c0-1.3,0.5-2,1.5-2h8.5c3.7,0,6.4,0.5,8.2,1.6c1.8,1,2.7,3,2.7,5.7c0,2.2-0.6,3.8-1.8,4.9
			c2.5,1.2,3.7,3.7,3.7,7.4v1.3c0,3.3-0.9,5.5-2.7,6.6c-1.8,1.1-4.7,1.7-8.7,1.7h-9.9C213.1,245.9,212.6,245.2,212.6,243.9z
			 M222.6,228c2.9,0,4.9-0.3,6-0.8c1.1-0.5,1.6-1.6,1.6-3.2c0-1.6-0.5-2.7-1.6-3.2c-1.1-0.5-3.1-0.8-6-0.8h-6.8v7.9H222.6z
			 M224.8,231.3h-9v11.3h8.2c3.3,0,5.5-0.3,6.6-0.9c1.1-0.6,1.6-2,1.6-4.2v-1.2c0-2.2-0.5-3.6-1.5-4.2
			C229.7,231.6,227.7,231.3,224.8,231.3z"/>
	</g>
	<g>
		<path class="st2" d="M176.9,66.2c-5.2-5.4-14.4-11.8-28.4-11.6c-14-0.2-23.1,6.1-28.4,11.6c-7.1,7.3-11.2,17.3-10.6,26.1
			c0.7,11.9,6.5,20.8,10.7,27.4c1.3,2,2.4,3.7,3.2,5.2c1.5,2.9,2.4,8.5,3.1,13.8c1.2,8.4,2.1,13.6,5,14.7c1.5,0.6,6.1,2.4,11.3,4.4
			c7.2,2.8,17.1,6.7,19.7,7.8v1.5l-30.6-9.3l-0.1,6.6l26.9,10.8v0.9l-23.2-6v6.3l19.9,8.1v1l-16.1-3.9l0,8.6h2.7l0-5.2l16.1,3.9
			v-6.2l-19.9-8.1v-0.9l23.2,6v-6.3l-26.9-10.8l0-1.2l30.6,9.3v-6.9l-0.9-0.3c-0.6-0.2-11.1-4.4-19.3-7.6c-5.7-2.2-11-4.3-12.6-4.9
			c-1.5-0.5-2.5-7.7-3.2-12.5c-0.8-5.6-1.7-11.4-3.4-14.7c-0.9-1.6-2-3.5-3.3-5.4c-4.1-6.3-9.6-14.9-10.3-26.1
			c-0.5-7.9,3.4-17.3,9.9-24c4.8-4.9,13.1-10.7,25.7-10.7v0c0.1,0,0.2,0,0.3,0c0.1,0,0.3,0,0.4,0c0.1,0,0.3,0,0.4,0
			c0.1,0,0.2,0,0.3,0v0c12.6,0,20.9,5.8,25.7,10.7c6.5,6.7,10.4,16.1,9.9,24c-0.7,11.2-6.2,19.8-10.3,26.1c-1.2,1.9-2.4,3.8-3.3,5.4
			c-1.8,3.3-2.6,9.1-3.4,14.7c-0.7,4.8-1.5,11-3.3,11.6c-1.5,0.5-10.6-2.1-14.7-3.4v-39.1h0V78.9c1.5-0.5,2.6-2,2.6-3.7
			c0-2.1-1.7-3.9-3.9-3.9s-3.9,1.7-3.9,3.9c0,1.6,1,3.1,2.5,3.6v28.5h0v41.1l0,0v0c0,0,15.7,5,18.2,4.1c2.6-1,4.1-5.2,5.2-13.8
			c0.7-5.4,1.6-10.9,3.1-13.8c0.8-1.5,1.9-3.2,3.2-5.2c4.2-6.5,10-15.5,10.7-27.4C188.1,83.5,184,73.5,176.9,66.2z M148.5,74.1
			c0.6,0,1.1,0.5,1.1,1.1c0,0.6-0.5,1.1-1.1,1.1c-0.6,0-1.1-0.5-1.1-1.1C147.5,74.6,148,74.1,148.5,74.1z"/>
		<path class="st2" d="M152.7,98h2.8v-8.1l4.3-4.3c0.5,0.2,1,0.3,1.6,0.3c2.1,0,3.9-1.7,3.9-3.9c0-2.1-1.7-3.9-3.9-3.9
			c-2.2,0-3.9,1.7-3.9,3.9c0,0.6,0.1,1.1,0.3,1.6l-5.1,5.1V98z M161.4,80.9c0.6,0,1.1,0.5,1.1,1.1c0,0.6-0.5,1.1-1.1,1.1
			c-0.6,0-1.1-0.5-1.1-1.1C160.3,81.4,160.8,80.9,161.4,80.9z"/>
		<path class="st2" d="M144.2,88.7l-5.1-5.1c0.2-0.5,0.3-1,0.3-1.6c0-2.1-1.7-3.9-3.9-3.9c-2.1,0-3.9,1.7-3.9,3.9
			c0,2.1,1.7,3.9,3.9,3.9c0.6,0,1.1-0.1,1.6-0.3l4.3,4.3V98h2.8V88.7z M134.5,82c0-0.6,0.5-1.1,1.1-1.1c0.6,0,1.1,0.5,1.1,1.1
			c0,0.6-0.5,1.1-1.1,1.1C135,83.1,134.5,82.6,134.5,82z"/>
		<path class="st2" d="M144.2,128.6v-23.9l-6.6-6.6c0.3-0.5,0.4-1.1,0.4-1.8c0-2.1-1.7-3.9-3.9-3.9c-2.1,0-3.9,1.7-3.9,3.9
			c0,2.1,1.7,3.9,3.9,3.9c0.5,0,0.9-0.1,1.4-0.2l5.9,5.9v22.7H144.2z M133.1,96.4c0-0.6,0.5-1.1,1.1-1.1c0.6,0,1.1,0.5,1.1,1.1
			c0,0.6-0.5,1.1-1.1,1.1C133.6,97.4,133.1,97,133.1,96.4z"/>
		<path class="st2" d="M162.8,92.5c-2.1,0-3.9,1.7-3.9,3.9c0,0.6,0.1,1.2,0.4,1.7l-6.6,6.6v23.9h2.8v-22.7l5.9-5.9
			c0.4,0.2,0.9,0.3,1.4,0.3c2.1,0,3.9-1.7,3.9-3.9C166.7,94.2,165,92.5,162.8,92.5z M162.8,97.4c-0.6,0-1.1-0.5-1.1-1.1
			c0-0.6,0.5-1.1,1.1-1.1c0.6,0,1.1,0.5,1.1,1.1C163.9,97,163.4,97.4,162.8,97.4z"/>
		<polygon class="st2" points="162.9,107.6 158.5,112 158.5,121.3 161.3,121.3 161.3,113.2 165.7,108.8 165.7,102.4 162.9,102.4 		
			"/>
		<polygon class="st2" points="138.4,121.3 138.4,112 134,107.6 134,102.4 131.2,102.4 131.2,108.8 135.6,113.2 135.6,121.3 		"/>
	</g>
</g>
</svg>
